<svg width="150" height="50" viewBox="0 0 150 50" fill="none" xmlns="http://www.w3.org/2000/svg">
<path d="M40.44 39.64C38.6 39.64 36.9333 39.2133 35.44 38.36C33.9733 37.48 32.8133 36.2533 31.96 34.68C31.1067 33.08 30.68 31.2 30.68 29.04C30.68 27.1733 31.0933 25.4267 31.92 23.8C32.7733 22.1733 33.96 20.8667 35.48 19.88C37 18.8667 38.76 18.36 40.76 18.36C41.88 18.36 42.92 18.5467 43.88 18.92C44.8667 19.2667 45.7333 19.8133 46.48 20.56C47.2267 21.28 47.8133 22.2 48.24 23.32C48.6667 24.4133 48.88 25.7067 48.88 27.2L34.8 27.44C34.8 29.4667 35.0133 31.2533 35.44 32.8C35.8933 34.32 36.6133 35.5067 37.6 36.36C38.5867 37.1867 39.8533 37.6 41.4 37.6C42.2267 37.6 43.0667 37.4533 43.92 37.16C44.8 36.8667 45.6133 36.4667 46.36 35.96C47.1067 35.4533 47.7067 34.8933 48.16 34.28L49.12 35.08C48.4 36.2 47.5333 37.0933 46.52 37.76C45.5067 38.4267 44.4667 38.9067 43.4 39.2C42.3333 39.4933 41.3467 39.64 40.44 39.64ZM34.92 25.76H45.12C45.12 24.8 44.9733 23.88 44.68 23C44.4133 22.0933 43.96 21.36 43.32 20.8C42.68 20.2133 41.84 19.92 40.8 19.92C39.2533 19.92 37.96 20.3867 36.92 21.32C35.9067 22.2267 35.24 23.7067 34.92 25.76ZM59.6863 39.64C59.0729 39.64 58.4463 39.5467 57.8063 39.36C57.1663 39.2 56.5663 38.8667 56.0063 38.36C55.4729 37.8533 55.0463 37.12 54.7263 36.16C54.4063 35.1733 54.2463 33.88 54.2463 32.28L54.3263 20.68L51.2463 20.72V19C51.9396 18.9733 52.6463 18.72 53.3663 18.24C54.0863 17.7333 54.7263 17.0533 55.2863 16.2C55.8729 15.3467 56.2729 14.4133 56.4863 13.4H57.8463V19H64.5663V20.56L57.8463 20.64L57.7663 31.76C57.7663 32.96 57.8596 33.9867 58.0463 34.84C58.2596 35.6667 58.5929 36.2933 59.0463 36.72C59.4996 37.1467 60.0863 37.36 60.8063 37.36C61.5529 37.36 62.2463 37.1467 62.8863 36.72C63.5529 36.2933 64.1396 35.7067 64.6463 34.96L65.7263 35.84C65.1396 36.72 64.5529 37.4133 63.9663 37.92C63.4063 38.4267 62.8596 38.8 62.3263 39.04C61.7929 39.3067 61.2996 39.4667 60.8463 39.52C60.3929 39.6 60.0063 39.64 59.6863 39.64ZM80.475 37.8C81.3017 37.8 81.875 37.6 82.195 37.2C82.515 36.7733 82.7017 36.2 82.755 35.48C82.8083 34.7333 82.835 33.88 82.835 32.92V27.32C82.835 25.0267 82.4617 23.3067 81.715 22.16C80.995 21.0133 79.8483 20.4533 78.275 20.48C77.2883 20.5067 76.315 20.7467 75.355 21.2C74.4217 21.6533 73.6617 22.24 73.075 22.96V34.76C73.075 35.2933 73.0617 35.7733 73.035 36.2C73.0083 36.6 72.955 37.0267 72.875 37.48C73.3017 37.4533 73.715 37.44 74.115 37.44C74.5417 37.4133 74.9683 37.3867 75.395 37.36V39H67.235V37.8C68.0617 37.8 68.635 37.6 68.955 37.2C69.275 36.7733 69.4617 36.2 69.515 35.48C69.595 34.7333 69.635 33.88 69.635 32.92V14C69.635 13.5733 69.635 13.1733 69.635 12.8C69.6617 12.4 69.7017 11.9333 69.755 11.4C69.275 11.4267 68.795 11.4533 68.315 11.48C67.8617 11.5067 67.395 11.5333 66.915 11.56V9.88C68.0883 9.88 68.995 9.82666 69.635 9.72C70.3017 9.61333 70.795 9.48 71.115 9.32C71.4617 9.16 71.7283 8.98667 71.915 8.8H73.075V21C73.6617 20.4933 74.315 20.0533 75.035 19.68C75.7817 19.28 76.5417 18.96 77.315 18.72C78.115 18.48 78.8883 18.36 79.635 18.36C81.955 18.36 83.6217 19.0933 84.635 20.56C85.675 22 86.2083 24.2533 86.235 27.32L86.275 34.76C86.275 35.2933 86.2617 35.7733 86.235 36.2C86.235 36.6 86.195 37.0267 86.115 37.48C86.5417 37.4533 86.955 37.44 87.355 37.44C87.7817 37.4133 88.2083 37.3867 88.635 37.36V39H80.475V37.8ZM91.5803 37.8C92.407 37.8 92.9803 37.6 93.3003 37.2C93.6203 36.7733 93.807 36.2 93.8603 35.48C93.9136 34.7333 93.9403 33.88 93.9403 32.92V23.8C93.9403 23.3733 93.9536 22.9733 93.9803 22.6C94.007 22.2 94.047 21.7333 94.1003 21.2C93.6203 21.2267 93.1403 21.2533 92.6603 21.28C92.207 21.3067 91.7403 21.3333 91.2603 21.36V19.68C92.4336 19.68 93.3403 19.6267 93.9803 19.52C94.6203 19.4133 95.1003 19.28 95.4203 19.12C95.767 18.96 96.0336 18.7867 96.2203 18.6H97.3803V34.76C97.3803 35.2933 97.367 35.7733 97.3403 36.2C97.3403 36.6 97.3003 37.0267 97.2203 37.48C97.647 37.4533 98.0603 37.44 98.4603 37.44C98.887 37.4133 99.3136 37.3867 99.7403 37.36V39H91.5803V37.8ZM95.4203 14.64C94.8603 14.64 94.367 14.4133 93.9403 13.96C93.5136 13.5067 93.3003 12.9467 93.3003 12.28C93.3003 11.6133 93.5136 11.0533 93.9403 10.6C94.3936 10.12 94.9003 9.88 95.4603 9.88C96.0736 9.88 96.5803 10.12 96.9803 10.6C97.407 11.0533 97.6203 11.6133 97.6203 12.28C97.6203 12.9467 97.3936 13.5067 96.9403 13.96C96.5136 14.4133 96.007 14.64 95.4203 14.64ZM102.83 39V37.8C103.657 37.8 104.23 37.6 104.55 37.2C104.87 36.7733 105.057 36.2 105.11 35.48C105.164 34.7333 105.19 33.88 105.19 32.92L105.23 23.8C105.23 23.3733 105.23 22.9467 105.23 22.52C105.257 22.0933 105.31 21.6533 105.39 21.2C104.91 21.2267 104.43 21.2533 103.95 21.28C103.497 21.3067 103.03 21.3333 102.55 21.36V19.68C103.724 19.68 104.604 19.6267 105.19 19.52C105.804 19.4133 106.257 19.28 106.55 19.12C106.844 18.96 107.084 18.7867 107.27 18.6H108.43C108.457 18.7867 108.47 19 108.47 19.24C108.497 19.48 108.524 19.7467 108.55 20.04C108.577 20.3333 108.59 20.6667 108.59 21.04C109.177 20.5333 109.817 20.08 110.51 19.68C111.23 19.28 111.977 18.96 112.75 18.72C113.55 18.48 114.337 18.36 115.11 18.36C117.43 18.36 119.124 19.0933 120.19 20.56C121.257 22 121.79 24.2533 121.79 27.32V34.76C121.79 35.2933 121.777 35.7733 121.75 36.2C121.75 36.6 121.71 37.0267 121.63 37.48C122.057 37.4533 122.47 37.44 122.87 37.44C123.297 37.4133 123.724 37.3867 124.15 37.36V39H115.99V37.8C116.817 37.8 117.39 37.6 117.71 37.2C118.03 36.7733 118.217 36.2 118.27 35.48C118.324 34.7333 118.35 33.88 118.35 32.92V27.32C118.324 25.0267 117.937 23.2933 117.19 22.12C116.47 20.9467 115.324 20.3733 113.75 20.4C112.79 20.4267 111.844 20.68 110.91 21.16C110.004 21.64 109.244 22.2533 108.63 23C108.657 23.2133 108.67 23.4533 108.67 23.72C108.67 23.9867 108.67 24.2667 108.67 24.56L108.63 34.76C108.63 35.2933 108.617 35.7733 108.59 36.2C108.59 36.6 108.55 37.0267 108.47 37.48C108.897 37.4533 109.31 37.44 109.71 37.44C110.137 37.4133 110.564 37.3867 110.99 37.36V39H102.83ZM126.767 39V37.8C127.594 37.8 128.154 37.6 128.447 37.2C128.767 36.7733 128.954 36.2 129.007 35.48C129.061 34.7333 129.087 33.88 129.087 32.92L129.127 14C129.127 13.5733 129.127 13.1733 129.127 12.8C129.154 12.4 129.194 11.9333 129.247 11.4C128.767 11.4267 128.287 11.4533 127.807 11.48C127.354 11.5067 126.887 11.5333 126.407 11.56V9.88C127.581 9.88 128.487 9.82666 129.127 9.72C129.767 9.61333 130.247 9.48 130.567 9.32C130.914 9.16 131.181 8.98667 131.367 8.8H132.527V27.72H134.127L139.007 22.6C139.461 22.1467 139.874 21.7467 140.247 21.4C140.621 21.0267 140.994 20.72 141.367 20.48L138.647 20.6V19H145.927V20.2C145.021 20.28 144.167 20.5733 143.367 21.08C142.594 21.56 141.874 22.1067 141.207 22.72C140.567 23.3333 140.007 23.8933 139.527 24.4L136.407 27.68C136.941 27.92 137.394 28.2267 137.767 28.6C138.141 28.9733 138.514 29.3867 138.887 29.84L141.727 33.48C141.861 33.64 142.087 33.9467 142.407 34.4C142.754 34.8533 143.154 35.3467 143.607 35.88C144.087 36.4133 144.581 36.8667 145.087 37.24C145.621 37.6133 146.114 37.8 146.567 37.8V39H142.927C142.181 39 141.474 38.6133 140.807 37.84C140.141 37.0667 139.434 36.2 138.687 35.24C137.994 34.28 137.367 33.4133 136.807 32.64C136.274 31.84 135.781 31.1467 135.327 30.56C134.901 29.9733 134.514 29.52 134.167 29.2L132.527 29.28V34.76C132.527 35.2933 132.514 35.7733 132.487 36.2C132.487 36.6 132.447 37.0267 132.367 37.48C132.794 37.4533 133.221 37.44 133.647 37.44C134.074 37.4133 134.501 37.3867 134.927 37.36V39H126.767Z" fill="black"/>
<path d="M26.88 39V37.24C26 37.1867 25.3733 37 25 36.68C24.6 36.36 24.3467 35.88 24.24 35.24C24.1333 34.6 24.08 33.7867 24.08 32.8V16.16C24.08 15.5733 24.0667 15.0133 24.04 14.48C24.0133 13.92 23.9867 13.44 23.96 13.04C24.4133 13.0667 24.9067 13.0933 25.44 13.12C25.9733 13.1467 26.4533 13.1733 26.88 13.2V11C25.2533 10.9733 23.6133 10.96 21.96 10.96C20.3067 10.9333 18.64 10.9333 16.96 10.96C14.4533 10.96 12.3867 11.2533 10.76 11.84C9.13333 12.4 7.92 13.24 7.12 14.36C6.29333 15.48 5.89333 16.8933 5.92 18.6C5.89333 19.6667 6.10667 20.7333 6.56 21.8C7.01333 22.84 7.77333 23.7733 8.84 24.6C9.90667 25.4267 11.3733 26.0533 13.24 26.48C12.7067 26.8 12.2267 27.24 11.8 27.8C11.3733 28.36 10.9333 28.9867 10.48 29.68L8.04 33.44C7.53333 34.24 7.06667 34.92 6.64 35.48C6.21333 36.04 5.73333 36.48 5.2 36.8C4.66667 37.0933 4.02667 37.24 3.28 37.24V39H8.84C9.53333 38.4133 10.1333 37.7867 10.64 37.12C11.12 36.4267 11.64 35.6533 12.2 34.8L14.96 30.32C15.3067 29.7867 15.68 29.2133 16.08 28.6C16.4533 27.9867 16.8667 27.4667 17.32 27.04C17.7467 27.04 18.1733 27.04 18.6 27.04C19 27.04 19.4133 27.04 19.84 27.04V33.64C19.84 34.36 19.8533 35.0133 19.88 35.6C19.88 36.16 19.9067 36.6133 19.96 36.96C19.64 36.9333 19.3067 36.92 18.96 36.92C18.5867 36.8933 18.2267 36.8667 17.88 36.84C17.5067 36.8133 17.1867 36.8 16.92 36.8V39H26.88ZM17.52 25.08C16.0533 25.0533 14.8 24.8267 13.76 24.4C12.72 23.9467 11.92 23.2667 11.36 22.36C10.8 21.4267 10.52 20.2267 10.52 18.76C10.52 17.6667 10.68 16.7467 11 16C11.32 15.2533 11.7733 14.6533 12.36 14.2C12.9467 13.72 13.6533 13.3867 14.48 13.2C15.28 12.9867 16.1467 12.88 17.08 12.88C17.9333 12.88 18.56 13.04 18.96 13.36C19.3333 13.68 19.5733 14.1467 19.68 14.76C19.7867 15.3733 19.84 16.16 19.84 17.12V24.96C19.44 24.9867 19.0667 25.0267 18.72 25.08C18.3467 25.1067 17.9467 25.1067 17.52 25.08Z" fill="black"/>
</svg>
